<?xml version="1.0" encoding="utf-8"?>
<!-- Generator: Adobe Illustrator 26.0.0, SVG Export Plug-In . SVG Version: 6.00 Build 0)  -->
<svg version="1.1" id="Layer_1" xmlns="http://www.w3.org/2000/svg" xmlns:xlink="http://www.w3.org/1999/xlink" x="0px" y="0px"
	 viewBox="0 0 842 472.6" style="enable-background:new 0 0 842 472.6;" xml:space="preserve">
<style type="text/css">
	.st0{fill:#FFFFFF;}
</style>
<g>
	<g id="change1_1">
		<path class="st0" d="M842,339l-2-35L705,215.7l2.1-3.5l-63.6-41.8l-42.3,63.9l63.4,40.1l10.9-11l132,87.8L842,339"/>
	</g>
	<g id="change1_7">
		<path class="st0" d="M491,113.5l1.2-1.6c1.7-2.1,3.5-3.7,5.6-5c1-0.7,2.1-1.2,3.2-1.7c0.5-0.4,2.3-0.8,5.3-1.5
			c6.4-0.6,11.7,1,16,4.8c0.9,0.9,1.7,1.8,2.5,2.7c0.5,0.4,1.4,1.9,2.6,4.6c0.9,2.2,1.4,4.5,1.5,7c0.2,5.3-1.4,10.2-4.8,14.7
			c-1.7,2-2.9,3.3-3.6,3.7c-1,0.8-2,1.5-3,2.1c-2.1,1.2-4.3,2-6.7,2.5c-2.4,0.5-4.8,0.5-7.2,0.1c-2.5-0.4-5-1.4-7.6-3
			c-2.1-1.5-3.8-3.2-5.2-5.1c-0.7-1-1.3-2-1.8-3c-1.1-2.8-1.6-4.5-1.6-5.2c-0.2-1.2-0.3-2.5-0.3-3.7c0.2-3,0.4-4.8,0.7-5.4
			C488.5,118.2,489.6,115.8,491,113.5 M465.2,99l-4.7,7.9c-5.7,10.6-9.5,21.5-11.3,32.5c-0.9,5.5-1.3,11.1-1.2,16.8
			c-0.6,2.8,0.7,11.3,3.8,25.6c1.5,5.5,3.5,10.8,6,15.9c6.8,12.2,11.5,19.2,13.9,21.1c7.6,8.9,16.8,16.4,27.6,22.7
			c26.8,13.6,53.2,16.1,79.1,7.4c10.6-3.5,20.4-8.8,29.5-15.9c8.9-6.2,17.4-16,25.5-29.5c12.4-20.6,15.8-44.5,10.3-71.8
			c-2.6-11-7-21.2-13.2-30.6c-5-8.7-14.2-18.2-27.6-28.3c-10.5-6.7-21.2-11.5-32.2-14.3c-5.5-1.4-11-2.3-16.6-2.7
			c-14.1-0.1-22.6,0.4-25.5,1.6c-14,3.5-22.1,6.2-24.3,7.9c-5,2.4-9.9,5.3-14.4,8.6C480.7,80.5,472.5,88.9,465.2,99z"/>
	</g>
	<g id="change1_2">
		<path class="st0" d="M677.1,284.4L677.1,284.4l-0.8-33.9c8.8,4.1,17.5,8.3,26.3,12.4L677.1,284.4"/>
	</g>
	<g id="change1_5">
		<path class="st0" d="M690,282.1l-0.8-33.9l26.3,12.4L690,282.1"/>
	</g>
	<g id="change1_4">
		<path class="st0" d="M694.9,291.4l-0.4-17l-0.4-17c8.8,4.1,17.5,8.3,26.3,12.4C711.9,277.1,703.4,284.3,694.9,291.4"/>
	</g>
	<g id="change1_9">
		<path class="st0" d="M707.2,294.5l-0.8-33.9l26.3,12.4L707.2,294.5"/>
	</g>
	<g>
		<g id="change1_8">
			<path class="st0" d="M289.8,122.2l0.3,0.2c3.7,2.8,6.3,5.4,7.8,7.9c0.9,1.3,1.7,2.8,2.3,4.2c0.5,0.7,1.2,3,2.1,7.1
				c1.2,7.6-0.6,14.7-5.3,21.5c-1.1,1.4-2.2,2.7-3.4,3.8c-0.5,0.7-2.5,2.2-5.9,4.3c-2.8,1.5-5.9,2.6-9.3,3.1c-3.2,0.5-6.3,0.5-9.3,0
				c-0.8,0-3-0.7-6.7-2.1c-1.5-0.7-2.9-1.5-4.3-2.4c-6.5-4.3-10.7-10.7-12.4-19.4c-0.3-1.7-0.4-3.3-0.4-5c0.3-4.1,0.7-6.5,1.1-7.3
				c0.9-3.2,2.4-6.3,4.5-9.3c1.1-1.4,2.2-2.7,3.4-3.8c3.1-2.6,5.1-4.1,5.9-4.3c2.8-1.5,5.9-2.6,9.3-3.1c3.2-0.5,6.3-0.5,9.3,0
				c0.8,0,3,0.7,6.7,2.1C286.9,120.5,288.4,121.3,289.8,122.2 M321.4,61.2L172.8,91.4l40-70.8L181.2,2.7l-54.6,96.5L99,106.4
				l-29.7,50l30.6-6.6L2.7,321.8l261.7,148.1L359.9,301l10.3,25.7l28.5-50.4L321.4,61.2z"/>
		</g>
		<g id="change1_3">
			<path class="st0" d="M319.4,64.8l76,211.2l-24.6,43.5l-7.9-19.7l-5.6-0.4l-94.1,166.2L6.9,320.6l95.8-169.2l-3.4-4.6l-23.7,5.1
				l25.4-42.8l26.1-7c-3.2,0.1-2.5-0.3,2.1-1.3L182.4,7l26.3,14.9l-38.5,68.1l3.3,4.6L319.4,64.8 M324.3,60.1l-3.5-2L178.9,87
				l36.7-64.8l-1.2-4.2L182.7,0l-4.2,1.2l-53.9,95.2l-26.4,7l-1.9,1.4l-29.7,50l3.3,4.6l23.9-5.1L0,320.3l1.2,4.2l261.7,148.1
				l4.2-1.2l92.4-163.3l7.9,19.7l5.6,0.4l28.5-50.4l-1.6,1.4l1.8-4L324.3,60.1z"/>
		</g>
	</g>
	<g id="change1_6">
		<path class="st0" d="M264.2,126.1L264.2,126.1c-2.6-37.5,61-64,125.8-68.4l0,0c64.8-4.5,131.4,13.1,134,50.6l0,0
			c2.6,37.5-61,64-125.8,68.4l0,0C333.3,181.1,266.8,163.6,264.2,126.1L264.2,126.1 M280.4,125L280.4,125
			c1.3,19.2,47,40.2,116.6,35.4l0,0c69.7-4.8,112-31.8,110.7-51.1l0,0c-1.3-19.2-47-40.2-116.6-35.4l0,0
			C321.5,78.7,279.1,105.7,280.4,125z"/>
	</g>
</g>
</svg>
