<?xml version="1.0" encoding="UTF-8"?><svg xmlns="http://www.w3.org/2000/svg" xmlns:xlink="http://www.w3.org/1999/xlink" height="472.6" preserveAspectRatio="xMidYMid meet" version="1.0" viewBox="-47.3 499.4 842.0 472.6" width="842.0" zoomAndPan="magnify"><g><g id="change1_1"><path d="M794.65704,838.39026L792.6306,803.4144L657.6921,715.0848L659.7685,711.63104L596.19617,669.7954L553.9133,733.7279L617.2657,773.8322L628.13776,762.80286L760.1629,850.6467L794.65704,838.39026" fill="inherit"/></g><g id="change1_7"><path d="M443.74677,612.90894L444.9635,611.3006Q447.468,608.2236,450.54614,606.26685Q452.0846,605.28864,453.76776,604.59Q454.54285,604.06104,459.09174,603.1363Q468.6329,602.19025,475.06973,607.9504Q476.44946,609.24927,477.54132,610.6789Q478.26694,611.3117,480.17172,615.26044Q481.49377,618.511,481.66733,622.2838Q481.97568,630.28894,476.86285,637.01373Q474.29718,640.0381,473.24527,640.71857Q471.7867,641.91296,470.2157,642.82043Q467.07358,644.63495,463.48123,645.3019Q459.8428,645.97864,456.30804,645.37946Q452.57205,644.8266,448.7239,642.3641Q445.56128,640.1268,443.52753,637.2419Q442.51068,635.79913,441.77512,634.19507Q440.18457,630.0429,440.20508,629.0184Q439.89273,627.1713,439.89426,625.34973Q440.17224,620.8178,440.60486,619.94183Q441.54822,616.37463,443.74677,612.90894 M417.90823,598.4274L413.22385,606.3493Q404.60046,622.27515,401.9447,638.87085Q400.61642,647.1687,400.7809,655.6338Q399.95135,659.8713,404.58774,681.18744Q406.9063,689.4664,410.54816,697.0375Q420.81265,715.3462,424.45413,718.15955Q435.8318,731.45197,452.02155,740.8244Q492.2477,761.235,531.11975,748.18744Q546.9951,742.9529,560.6242,732.3096Q574.02466,723.0764,586.0923,702.79346Q604.697,671.9684,596.35815,630.9677Q592.47504,614.52997,583.1833,600.3401Q575.6979,587.2412,555.5795,572.0202Q539.81995,561.90454,523.391,557.7568Q515.177,555.68304,506.79538,555.10065Q485.69543,554.9515,481.27478,556.7115Q460.31207,562.01044,456.9693,564.65906Q449.39743,568.3008,442.534,573.26666Q428.8062,583.1989,417.90823,598.4274 Z" fill="inherit"/></g><g id="change1_2"><path d="M629.833,783.77576L629.833,783.77576L628.9843,749.8408Q642.1191,756.059,655.2538,762.27747L629.833,783.77576" fill="inherit"/></g><g id="change1_5"><path d="M642.7412,781.5054L641.8919,747.5695L668.16174,760.0067L642.7412,781.5054" fill="inherit"/></g><g id="change1_4"><path d="M647.64996,790.83984L647.2263,773.8725L646.80133,756.90466Q659.9365,763.12317,673.071,769.3411Q660.36066,780.0906,647.64996,790.83984" fill="inherit"/></g><g id="change1_9"><path d="M659.88336,793.9298L659.03467,759.9945L685.3044,772.4315L659.88336,793.9298" fill="inherit"/></g><g><g id="change1_8"><path d="M242.5304,621.62256L242.7832,621.7867Q248.2925,625.9186,250.54189,629.6528Q251.88747,631.66876,252.85825,633.8838Q253.57773,634.86676,254.92972,640.9755Q256.73965,652.336,249.65031,662.5042Q248.03206,664.59705,246.2148,666.3169Q245.42998,667.41095,240.31564,670.6328Q236.08446,672.94946,231.05849,673.7696Q226.29024,674.52844,221.73177,673.72095Q220.55962,673.7633,215.0129,671.62683Q212.8125,670.63403,210.66454,669.25104Q200.84102,662.867,198.26497,649.8979Q197.86285,647.37274,197.90007,644.9075Q198.37776,638.79456,199.0008,637.6429Q200.39336,632.8882,203.54417,628.36896Q205.16277,626.2757,206.98003,624.55646Q211.69739,620.5857,212.8789,620.2409Q217.1099,617.92426,222.13596,617.10455Q226.9047,616.3443,231.46317,617.1522Q232.63503,617.1095,238.18208,619.2462Q240.38211,620.239,242.5304,621.62256 M274.06787,560.58093L125.5373,590.82007L165.58224,520.0446L133.91847,502.12827L79.30412,598.65424L51.72125,605.81586L22.040579,655.85114L52.649162,649.27124L-44.639175,821.219L217.04591,969.2803L312.62207,800.3608L322.93588,826.1034L351.44385,775.699L274.06787,560.58093 Z" fill="inherit"/></g><g id="change1_3"><path d="M272.0561,564.1585L348.0429,775.4064L323.41263,818.95447L315.50378,799.20636L309.9203,798.8316L215.87024,965.0536L-40.410587,820.04913L55.35109,650.8007L51.9967,646.2361L28.33391,651.3258L53.744835,608.4897L79.884285,601.52985Q75.06565,601.71747,82.00613,600.183L135.0919,506.35873L161.35175,521.2173L122.83536,589.29126L126.15667,593.862L272.0561,564.1585 M276.98944,559.5298L273.4491,557.53815L131.59279,586.4216L168.2845,521.57324L167.11148,517.34235L135.44778,499.42642L131.21707,500.59897L77.36392,595.7783L50.922813,602.81586L49.051575,604.2321L19.370028,654.2675L22.692673,658.88684L46.543102,653.7591L-47.341225,819.68976L-46.16784,823.92053L215.51683,971.9824L219.74765,970.8091L312.14313,807.5119L320.0541,827.2583L325.63837,827.6318L354.1459,777.2272L352.558,778.59705L354.36856,774.6468L276.98944,559.5298 Z" fill="inherit"/></g></g><g id="change1_6"><path d="M216.90555,625.47534L216.90555,625.47534C214.3309,587.9775,277.87796,561.5151,342.72552,557.062L342.72552,557.062C407.5731,552.6089,474.141,570.1365,476.71564,607.6344L476.71564,607.6344C479.29047,645.13196,415.74307,671.59503,350.89548,676.0482L350.89548,676.0482C286.04782,680.5011,219.48001,662.97314,216.90555,625.47534L216.90555,625.47534 M233.149,624.36005L233.149,624.36005C234.47038,643.60535,280.1096,664.5883,349.78006,659.80414L349.78006,659.80414C419.45053,655.0199,461.79355,627.9948,460.47214,608.7498L460.47214,608.7498C459.15073,589.50476,413.51135,568.5215,343.84094,573.3059L343.84094,573.3059C274.17044,578.09,231.8276,605.1147,233.149,624.36005 Z" fill="inherit"/></g></g></svg>