<?xml version="1.0" encoding="utf-8"?>
<!-- Generator: Adobe Illustrator 26.0.0, SVG Export Plug-In . SVG Version: 6.00 Build 0)  -->
<svg version="1.1" id="Layer_1" xmlns="http://www.w3.org/2000/svg" xmlns:xlink="http://www.w3.org/1999/xlink" x="0px" y="0px"
	 viewBox="0 0 492 473.3" style="enable-background:new 0 0 492 473.3;" xml:space="preserve">
<style type="text/css">
	.st0{fill:#FFFFFF;stroke:#009766;stroke-width:2;}
	.st1{fill:#FFFFFF;stroke:#009766;stroke-width:3.0028;stroke-miterlimit:6.0056;}
	.st2{fill:#FFFFFF;stroke:#009766;stroke-width:3.3556;stroke-miterlimit:6.0056;}
	.st3{fill:#FFFFFF;stroke:#009766;stroke-width:4.1619;stroke-miterlimit:6.0056;}
</style>
<g>
	<g id="change1_5">
		<path class="st0" d="M0.8,227l38.4-38.4l206.7,206.7l206.6-206.6l38.2,38.2L245.7,471.9L0.8,227L0.8,227z"/>
	</g>
	<g id="change1_1">
		<path class="st1" d="M22.5,246.3l14.6-14.6"/>
		<path class="st1" d="M42.9,266.7l14.6-14.6"/>
		<path class="st1" d="M63.3,287.1l14.6-14.6"/>
		<path class="st1" d="M83.7,307.5l14.6-14.6"/>
		<path class="st1" d="M104.1,327.9l14.6-14.6"/>
		<path class="st1" d="M124.5,348.3l14.6-14.6"/>
		<path class="st1" d="M144.9,368.7l14.6-14.6"/>
		<path class="st1" d="M165.3,389.1l14.6-14.6"/>
		<path class="st1" d="M185.7,409.5l14.6-14.6"/>
		<path class="st1" d="M206.1,429.9l14.6-14.6"/>
		<path class="st1" d="M226.5,450.3l14.6-14.6"/>
		<path class="st1" d="M32.6,256.5l7.3-7.3"/>
		<path class="st1" d="M53,276.9l7.3-7.3"/>
		<path class="st1" d="M73.4,297.3l7.3-7.3"/>
		<path class="st1" d="M93.8,317.7l7.3-7.3"/>
		<path class="st1" d="M114.2,338.2l7.3-7.3"/>
		<path class="st1" d="M134.7,358.6l7.3-7.3"/>
		<path class="st1" d="M155.1,379l7.3-7.3"/>
		<path class="st1" d="M175.5,399.4l7.3-7.3"/>
		<path class="st1" d="M195.9,419.8l7.3-7.3"/>
		<path class="st1" d="M216.3,440.2l7.3-7.3"/>
		<path class="st1" d="M236.8,460.7l7.3-7.3"/>
		<path class="st1" d="M12.2,236.1l7.3-7.3"/>
		<path class="st1" d="M468.8,246.9l-14.6-14.6"/>
		<path class="st1" d="M448.4,267.3l-14.6-14.6"/>
		<path class="st1" d="M428,287.7l-14.6-14.6"/>
		<path class="st1" d="M407.6,308.1L393,293.5"/>
		<path class="st1" d="M387.2,328.5l-14.6-14.6"/>
		<path class="st1" d="M366.8,348.9l-14.6-14.6"/>
		<path class="st1" d="M346.4,369.3l-14.6-14.6"/>
		<path class="st1" d="M326,389.7l-14.6-14.6"/>
		<path class="st1" d="M305.6,410L291,395.5"/>
		<path class="st1" d="M285.2,430.4l-14.6-14.6"/>
		<path class="st1" d="M264.8,450.8l-14.6-14.6"/>
		<path class="st1" d="M458.7,257.1l-7.3-7.3"/>
		<path class="st1" d="M438.3,277.5l-7.3-7.3"/>
		<path class="st1" d="M417.9,297.9l-7.3-7.3"/>
		<path class="st1" d="M397.5,318.3l-7.3-7.3"/>
		<path class="st1" d="M377.1,338.7l-7.3-7.3"/>
		<path class="st1" d="M356.7,359.1l-7.3-7.3"/>
		<path class="st1" d="M336.2,379.6l-7.3-7.3"/>
		<path class="st1" d="M315.8,400l-7.3-7.3"/>
		<path class="st1" d="M295.4,420.4l-7.3-7.3"/>
		<path class="st1" d="M275,440.8l-7.3-7.3"/>
		<path class="st1" d="M254.6,461.2l-7.3-7.3"/>
		<path class="st1" d="M479.2,236.6l-7.3-7.3"/>
	</g>
	<g>
		<g id="change1_2">
			<path class="st1" d="M261.2,24.1L216.4,50l71.4,123.6c51.9,1.9,83.9,113.2,125.9,169.7c18.3-12.6,23.3,16.5,68.3,63L261.2,24.1
				L261.2,24.1z"/>
			<path class="st1" d="M230.1,24.1L275,50l-71.4,123.6c-51.9,1.9-83.9,113.2-125.9,169.7c-18.3-12.6-23.3,16.5-68.3,63L230.1,24.1
				L230.1,24.1z"/>
		</g>
		<g id="change1_3">
			<path class="st2" d="M285.9,43.1c0,22.9-18.6,41.5-41.5,41.5S203,66,203,43.1c0-22.9,18.6-41.5,41.5-41.5
				C267.3,1.7,285.9,20.2,285.9,43.1z"/>
		</g>
		<g id="change1_4">
			<path class="st3" d="M277.9,43.1c0,18.5-15,33.4-33.4,33.4S211,61.6,211,43.1c0-18.5,15-33.4,33.4-33.4S277.9,24.7,277.9,43.1
				L277.9,43.1z"/>
		</g>
	</g>
</g>
</svg>
